<svg viewBox="0 0 64 64" xmlns="http://www.w3.org/2000/svg">
  <rect width="64" height="64" fill="#050508"/>
  <g transform="translate(32 34)">
    <path fill="none" stroke="#ff00aa" stroke-width="5" stroke-linecap="round" stroke-linejoin="round"
      d="M 0 -20 C 16 -20 20 -4 10 6 C 0 16 -16 12 -18 -2 C -20 -16 -8 -24 0 -20"/>
    <path fill="none" stroke="#00ff00" stroke-width="5" stroke-linecap="round" stroke-linejoin="round"
      d="M 0 -20 C 16 -20 20 -4 10 6 C 0 16 -16 12 -18 -2 C -20 -16 -8 -24 0 -20" transform="rotate(120)"/>
    <path fill="none" stroke="#00bbff" stroke-width="5" stroke-linecap="round" stroke-linejoin="round"
      d="M 0 -20 C 16 -20 20 -4 10 6 C 0 16 -16 12 -18 -2 C -20 -16 -8 -24 0 -20" transform="rotate(-120)"/>
  </g>
</svg>
