<svg viewBox="0 0 64 64" xmlns="http://www.w3.org/2000/svg">
  <defs>
    <clipPath id="rosa-c"><circle cx="32" cy="32" r="28"/></clipPath>
  </defs>
  <rect width="64" height="64" fill="#050508"/>
  <g clip-path="url(#rosa-c)">
    <g transform="rotate(14 32 32)">
      <rect x="-32" y="0" width="6" height="96" fill="#ff00aa"/>
      <rect x="-22" y="0" width="6" height="96" fill="#050508"/>
      <rect x="-12" y="0" width="6" height="96" fill="#ff00aa"/>
      <rect x="-2" y="0" width="6" height="96" fill="#050508"/>
      <rect x="8" y="0" width="6" height="96" fill="#ff00aa"/>
      <rect x="18" y="0" width="6" height="96" fill="#050508"/>
      <rect x="28" y="0" width="6" height="96" fill="#ff00aa"/>
      <rect x="38" y="0" width="6" height="96" fill="#050508"/>
    </g>
    <g transform="rotate(-14 32 32)">
      <rect x="-32" y="0" width="5" height="96" fill="#00bbff"/>
      <rect x="-21" y="0" width="5" height="96" fill="#050508"/>
      <rect x="-10" y="0" width="5" height="96" fill="#00bbff"/>
      <rect x="1" y="0" width="5" height="96" fill="#050508"/>
      <rect x="12" y="0" width="5" height="96" fill="#00bbff"/>
      <rect x="23" y="0" width="5" height="96" fill="#050508"/>
      <rect x="34" y="0" width="5" height="96" fill="#00bbff"/>
    </g>
  </g>
  <circle cx="32" cy="32" r="28" fill="none" stroke="#050508" stroke-width="2"/>
</svg>
