<svg viewBox="0 0 64 64" xmlns="http://www.w3.org/2000/svg">
  <defs>
    <clipPath id="rosc-c"><circle cx="32" cy="32" r="28"/></clipPath>
  </defs>
  <rect width="64" height="64" fill="#050508"/>
  <g clip-path="url(#rosc-c)">
    <g transform="translate(4 3) rotate(14 28 29)">
      <rect x="-32" y="0" width="5" height="96" fill="#ff00aa"/>
      <rect x="-22" y="0" width="5" height="96" fill="#050508"/>
      <rect x="-12" y="0" width="5" height="96" fill="#ff00aa"/>
      <rect x="-2" y="0" width="5" height="96" fill="#050508"/>
      <rect x="8" y="0" width="5" height="96" fill="#ff00aa"/>
      <rect x="18" y="0" width="5" height="96" fill="#050508"/>
      <rect x="28" y="0" width="5" height="96" fill="#ff00aa"/>
    </g>
    <g transform="translate(4 3) rotate(-14 28 29)">
      <rect x="-32" y="0" width="4" height="96" fill="#00bbff"/>
      <rect x="-24" y="0" width="4" height="96" fill="#050508"/>
      <rect x="-16" y="0" width="4" height="96" fill="#00bbff"/>
      <rect x="-8" y="0" width="4" height="96" fill="#050508"/>
      <rect x="0" y="0" width="4" height="96" fill="#00bbff"/>
    </g>
  </g>
  <circle cx="32" cy="32" r="28" fill="none" stroke="#050508" stroke-width="2"/>
</svg>
