<svg viewBox="0 0 64 64" xmlns="http://www.w3.org/2000/svg">
  <defs>
    <mask id="potb-rim">
      <rect width="64" height="64" fill="white"/>
      <rect x="21" y="14" width="22" height="34" rx="6" ry="6" fill="black"/>
    </mask>
  </defs>
  <rect width="64" height="64" fill="#050508"/>
  <g mask="url(#potb-rim)">
    <rect x="0" y="2" width="64" height="4" fill="#00bbff"/>
    <rect x="0" y="8" width="64" height="4" fill="#050508"/>
    <rect x="0" y="40" width="64" height="3" fill="#ff00aa"/>
    <rect x="0" y="43" width="64" height="3" fill="#050508"/>
    <rect x="0" y="46" width="64" height="3" fill="#ff00aa"/>
    <rect x="0" y="49" width="64" height="2" fill="#050508"/>
    <rect x="0" y="51" width="64" height="3" fill="#00ff00"/>
    <rect x="0" y="54" width="64" height="2" fill="#050508"/>
    <rect x="0" y="56" width="64" height="4" fill="#00bbff"/>
    <rect x="0" y="14" width="64" height="3" fill="#00ff00"/>
    <rect x="0" y="20" width="64" height="2" fill="#050508"/>
    <rect x="0" y="24" width="64" height="4" fill="#ff00aa"/>
  </g>
  <rect x="21" y="14" width="22" height="34" rx="6" ry="6" fill="#e8e8ff" stroke="#141428" stroke-width="1.25"/>
</svg>
